<svg width="343" height="94" viewBox="0 0 343 94" fill="none" xmlns="http://www.w3.org/2000/svg">
<path d="M0.819662 12.5161C0.819662 8.64985 2.10057 5.56999 4.59833 3.342C7.09609 1.11401 10.8107 0 15.7422 0C20.6737 0 24.0681 0.982942 26.5018 2.94882C28.9355 4.91469 30.6007 7.40481 31.6254 10.4847C32.6501 13.5646 33.1625 16.9721 33.1625 20.7072C33.1625 24.4424 33.1625 28.112 33.1625 31.7161H20.2254C20.2254 27.1946 20.2254 23.7216 20.0973 21.2315C20.0332 18.7414 19.777 16.9721 19.3928 15.7925C19.0085 14.6785 18.368 13.9577 17.5355 13.8267C16.6388 13.6301 15.422 13.5645 13.7568 13.5645V79.8801C15.486 79.8801 16.831 79.749 17.7276 79.4869C18.6242 79.2248 19.3287 78.2418 19.713 76.5381C20.1613 74.8343 20.3534 72.2132 20.3534 68.609C20.3534 65.0049 20.3534 59.8281 20.2254 53.0786H15.9343V39.8417H34.0591C34.0591 49.7367 34.0591 58.0588 33.931 64.8083C33.867 71.5578 33.2906 77.0623 32.3299 81.2562C31.3052 85.4501 29.64 88.4644 27.2703 90.2992C24.9007 92.134 21.4422 93.0515 16.831 93.0515C11.3231 93.0515 7.22418 91.9374 4.66237 89.6439C2.10056 87.4159 0.755615 84.336 0.755615 80.5354V12.5161H0.819662Z" fill="white"/>
<path d="M65.1207 74.9654H53.3363L51.1588 92.8548H38.2217L49.4936 0H69.3476L80.3634 92.8548H67.4263L65.2487 74.9654H65.1207ZM55.0015 61.7285H63.5836L60.5734 37.2206C60.1251 34.0096 59.8689 30.5366 59.6768 26.6049C59.4847 22.7386 59.4206 19.2001 59.4206 15.9891H59.1645C59.1645 19.2001 59.1004 22.7386 58.9083 26.6049C58.7161 30.4711 58.46 34.0096 58.0116 37.2206L55.0015 61.7285Z" fill="white"/>
<path d="M99.7058 0.0655432V79.618H112.643V92.8548H86.7046V0H99.6417L99.7058 0.0655432Z" fill="white"/>
<path d="M146.138 74.9654H134.353L132.176 92.8548H119.239L130.511 0H150.365L161.38 92.8548H148.443L146.266 74.9654H146.138ZM136.019 61.7285H144.601L141.591 37.2206C141.142 34.0096 140.886 30.5366 140.694 26.6049C140.502 22.7386 140.438 19.2001 140.438 15.9891H140.182C140.182 19.2001 140.117 22.7386 139.925 26.6049C139.733 30.4711 139.477 34.0096 139.029 37.2206L136.019 61.7285Z" fill="white"/>
<path d="M162.086 17.4308C162.278 15.0717 162.662 12.7782 163.303 10.5502C163.943 8.32222 164.392 5.83213 164.52 3.01437C164.52 2.29355 164.776 1.57271 165.288 0.917416C165.993 0.393183 166.697 0.131073 167.338 0.131073H180.019C180.851 0.131073 181.364 0.589785 181.492 1.57272C181.62 2.55566 181.684 3.27648 181.684 3.66965C181.684 5.63553 181.364 7.73247 180.659 10.026C179.955 12.3195 178.994 14.4164 177.649 16.3168C176.368 18.2171 174.831 19.7898 172.974 21.1004C171.18 22.411 169.195 23.0008 167.017 23.0008H165.416C164.84 23.0008 164.328 23.0008 163.815 22.8697C163.239 22.6731 162.726 21.9523 162.406 20.5762C162.086 19.2001 161.958 18.1516 162.022 17.4308H162.086Z" fill="white"/>
<path d="M223.889 39.9728C223.889 43.1837 223.313 45.6083 222.224 47.3776C221.071 49.1469 219.598 50.4575 217.805 51.3094C216.012 52.1612 213.898 52.6855 211.593 52.8165C209.287 53.0131 206.917 53.0786 204.612 53.0786V92.9859H191.675V0H201.794C207.43 0 211.721 0.58978 214.731 1.83483C217.741 3.07989 219.983 4.78363 221.327 7.01162C222.672 9.23961 223.505 11.7953 223.697 14.6785C223.889 17.6274 224.017 20.7728 224.017 24.2458L223.889 39.9073V39.9728ZM204.548 39.9728C206.277 39.9728 207.558 39.9073 208.454 39.7107C209.287 39.5141 209.927 39.0554 210.312 38.269C210.696 37.4827 210.888 36.2376 210.952 34.4684C210.952 32.7646 211.016 30.2745 211.016 27.1291C211.016 23.9837 211.016 21.4936 210.888 19.7243C210.824 17.955 210.568 16.5789 210.12 15.6615C209.671 14.7441 209.031 14.1543 208.198 13.9577C207.366 13.7611 206.149 13.6301 204.548 13.6301V40.0383V39.9728Z" fill="white"/>
<path d="M252.005 50.0643C252.965 50.1298 254.054 50.3264 255.335 50.523C256.616 50.7196 257.769 51.1128 258.922 51.7025C260.074 52.2923 260.971 53.0786 261.676 54.0616C262.38 55.0445 262.764 56.3551 262.764 57.9933L262.892 92.8548H249.955C250.147 84.4671 250.212 77.7176 250.212 72.5408C250.212 67.364 250.083 63.4322 249.891 60.6145C249.699 57.7967 249.315 55.8964 248.738 54.8479C248.162 53.7995 247.394 53.2097 246.369 53.0786H243.615V92.8548H230.678V0H240.797C246.433 0 250.724 0.58978 253.734 1.83483C256.744 3.07989 258.986 4.78363 260.331 7.01162C261.676 9.23961 262.508 11.7953 262.7 14.6785C262.892 17.6274 263.021 20.7728 263.021 24.2458L262.892 35.91C262.892 37.6793 262.636 39.383 262.188 41.0213C261.74 42.6595 261.035 44.1011 260.203 45.4117C259.37 46.7223 258.217 47.7708 256.808 48.6227C255.399 49.4745 253.798 49.9332 252.005 49.9988V50.0643ZM243.551 39.9728C245.28 39.9728 246.561 39.9073 247.458 39.7107C248.29 39.5141 248.931 39.0554 249.315 38.269C249.699 37.4827 249.891 36.2376 249.955 34.4684C249.955 32.7646 249.955 30.2745 249.955 27.1291C249.955 23.9837 249.955 21.4936 249.827 19.7243C249.763 17.955 249.507 16.5789 249.059 15.6615C248.61 14.7441 247.97 14.1543 247.137 13.9577C246.241 13.7611 245.088 13.6301 243.487 13.6301V40.0383L243.551 39.9728Z" fill="white"/>
<path d="M285.693 93.0513C281.722 93.0513 278.648 92.2649 276.47 90.5611C274.293 88.9229 272.756 86.6949 271.731 83.8116C270.706 80.9284 270.13 77.5864 270.002 73.7201C269.874 69.8539 269.746 65.7256 269.746 61.3351V31.7815C269.746 28.1774 269.746 24.4422 269.746 20.707C269.746 16.9719 270.258 13.5644 271.219 10.4845C272.179 7.40464 273.78 4.91453 276.022 3.01419C278.264 1.11384 281.594 0.0653687 286.013 0.0653687C290.432 0.0653687 293.634 1.0483 295.876 2.94864C298.118 4.84899 299.719 7.33911 300.615 10.3534C301.512 13.4333 302.024 16.8408 302.024 20.576C302.024 24.3111 302.024 28.0463 302.024 31.7815V61.3351C302.024 65.7256 301.896 69.9195 301.64 73.7201C301.384 77.5864 300.743 80.9284 299.655 83.8116C298.566 86.6949 296.965 88.9229 294.723 90.5611C292.546 92.1994 289.472 93.0513 285.565 93.0513H285.693ZM285.949 79.5522C286.782 79.5522 287.486 79.3556 287.87 79.028C288.255 78.7003 288.639 77.8485 288.831 76.6034C289.023 75.2929 289.151 73.458 289.151 71.099V22.1487C289.151 19.7896 289.087 17.9548 288.895 16.6442C288.703 15.3337 288.447 14.5473 287.998 14.2197C287.55 13.892 286.91 13.6954 286.077 13.6954C285.245 13.6954 284.54 13.892 284.092 14.2197C283.643 14.5473 283.259 15.3992 283.067 16.6442C282.875 17.9548 282.747 19.7896 282.747 22.1487V71.099C282.747 73.458 282.811 75.2929 283.003 76.6034C283.195 77.914 283.515 78.7003 283.964 79.028C284.412 79.3556 285.116 79.5522 285.949 79.5522Z" fill="white"/>
<path d="M342.245 68.7401C342.245 72.2787 342.117 75.5551 341.924 78.5695C341.732 81.5838 340.9 84.1395 339.491 86.2364C338.082 88.3334 335.84 90.0371 332.894 91.2166C329.948 92.3961 325.593 92.9859 320.021 92.9859H309.902V0H320.021C325.657 0 329.948 0.58978 332.894 1.83483C335.904 3.07989 338.082 4.78363 339.491 7.01162C340.9 9.23961 341.732 11.7953 341.924 14.6785C342.117 17.6274 342.245 20.7728 342.245 24.2458V68.6746V68.7401ZM322.775 13.5645V79.4869C324.312 79.4869 325.529 79.3558 326.426 79.1593C327.258 78.9627 327.963 78.3729 328.347 77.4555C328.731 76.5381 329.051 75.162 329.115 73.3927C329.179 71.6234 329.244 69.1333 329.244 65.9879V27.1291C329.244 23.9181 329.243 21.4936 329.115 19.7243C329.051 17.955 328.795 16.5789 328.347 15.6615C327.899 14.7441 327.258 14.1543 326.426 13.9577C325.529 13.7611 324.376 13.6301 322.775 13.6301V13.5645Z" fill="white"/>
</svg>
